<?xml version="1.0" encoding="UTF-8"?>
<svg id="katman_2" data-name="katman 2" xmlns="http://www.w3.org/2000/svg" viewBox="0 0 244.8 69.28">
  <defs>
    <style>
      .cls-1 {
        fill: #1d1d1b;
      }
      .cls-2 {
        fill: #fff;
      }
    </style>
  </defs>
  <g id="katman_1" data-name="katman 1">
    <g>
      <g>
        <path class="cls-1" d="M89.79,18.14h7.37l11.41,28.98,11.41-28.98h7.16l-14.59,35h-8.15l-14.59-35Z"/>
        <path class="cls-1" d="M131.94,39.89V5.74h6.73v12.4h19.27v6.16h-19.27v15.59c0,5.53,2.9,7.94,7.3,7.94s7.37-2.34,7.37-7.94v-.78h6.66v.78c0,9.49-5.67,14.17-14.03,14.17s-14.03-4.68-14.03-14.17Z"/>
        <path class="cls-1" d="M164.18,35.92c0-10.98,7.79-18.7,18.92-18.7s18.63,7.51,18.63,18.7v17.22h-6.16v-7.65c-2.34,5.67-7.51,8.57-13.6,8.57-9.14,0-17.78-6.59-17.78-18.14ZM195.07,35.64c0-7.08-4.82-12.19-12.04-12.19s-12.04,5.1-12.04,12.19,4.82,12.19,12.04,12.19,12.04-5.1,12.04-12.19Z"/>
        <path class="cls-1" d="M226.23,63.13c7.16,0,11.9-3.4,11.9-12.54v-4.04c-2.41,4.53-7.3,7.23-13.18,7.23-9.07,0-17.71-6.23-17.71-18.14,0-10.63,7.79-18.42,18.84-18.42s18.7,7.44,18.7,18.7v14.38c0,13.46-8.22,18.7-18.56,18.7M238.14,35.64c0-7.08-4.82-12.19-12.04-12.19s-12.04,5.1-12.04,12.19,4.82,11.83,12.04,11.83,12.04-4.75,12.04-11.83Z"/>
      </g>
      <g>
        <rect class="cls-1" width="69.28" height="69.28" rx="13.86" ry="13.86"/>
        <g>
          <path class="cls-2" d="M54.06,37.22c-.1.76-.2,1.52-.31,2.29-.05.33-.08.65-.16.97-.2.78-1,1.25-1.79,1.08-.78-.17-1.3-.9-1.18-1.69.32-2.15.54-4.31.43-6.5-.19-3.64-.96-7.15-2.33-10.52-.74-1.81-1.64-3.53-2.69-5.17-.34-.53-.43-1.07-.16-1.65.2-.43.59-.63.98-.83h.76c.55.22.92.64,1.19,1.15.67,1.24,1.41,2.46,2.02,3.73,1.57,3.27,2.56,6.71,3.02,10.31.07.54.15,1.07.23,1.6v5.24Z"/>
          <path class="cls-2" d="M18.59,32.29c-.21,1.08-.36,2.12-.29,3.18.11,1.79.74,3.41,1.62,4.96.61,1.07.06,2.22-1.12,2.37-.62.08-1.13-.19-1.44-.72-1.66-2.77-2.49-5.74-1.98-8.99.13-.83.28-1.67.48-2.49.45-1.84,2.34-2.49,3.85-1.34,3.95,3.03,7.89,6.06,11.83,9.09.56.43,1.12.87,1.69,1.3.08.06.16.1.33.21.21-.96.49-1.86.59-2.78.12-1.05.14-2.12.1-3.18-.09-2.19-.72-4.25-1.74-6.18-.34-.64-.74-1.23-1.1-1.86-.55-.95-.04-2.08,1.03-2.29.65-.13,1.18.13,1.54.67,1.75,2.56,2.86,5.35,3.24,8.44.37,2.97.03,5.85-.99,8.65-.38,1.04-1.11,1.67-2.21,1.84-.77.12-1.44-.16-2.04-.63-1.14-.88-2.29-1.76-3.43-2.64-3.21-2.47-6.42-4.94-9.63-7.41-.09-.07-.18-.13-.3-.22Z"/>
          <path class="cls-2" d="M45.71,34.13c-.09,4.73-1.03,8.74-2.97,12.5-.48.93-1.03,1.83-1.57,2.72-.32.54-.82.83-1.46.75-.68-.08-1.14-.45-1.33-1.12-.13-.45-.02-.87.22-1.27.37-.6.75-1.2,1.09-1.82,1.33-2.41,2.21-4.98,2.65-7.7.33-2.03.38-4.07.13-6.12-.39-3.14-1.35-6.08-2.86-8.84-.33-.6-.72-1.16-1.05-1.76-.55-.98-.04-2.1,1.07-2.29.65-.11,1.2.14,1.52.7.76,1.31,1.52,2.62,2.18,3.98,1.04,2.15,1.67,4.44,2.04,6.79.2,1.31.27,2.64.35,3.46Z"/>
          <path class="cls-2" d="M45.67,52.47c.07-.2.13-.5.28-.73,1.05-1.67,1.96-3.41,2.74-5.23.32-.74,1.05-1.09,1.76-.91.71.18,1.22.84,1.17,1.57-.01.18-.06.37-.14.55-.81,1.95-1.79,3.82-2.93,5.6-.37.57-.89.86-1.57.75-.62-.1-1.05-.47-1.22-1.1-.04-.13-.05-.27-.09-.5Z"/>
        </g>
      </g>
    </g>
  </g>
</svg>